<svg xmlns="http://www.w3.org/2000/svg" viewBox="0 0 1200 630">
  <rect width="1200" height="630" fill="#f7f6f3"/>
  <g stroke="#e6e4de" stroke-width="1">
    <line x1="0" y1="105" x2="1200" y2="105"/>
    <line x1="0" y1="210" x2="1200" y2="210"/>
    <line x1="0" y1="315" x2="1200" y2="315"/>
    <line x1="0" y1="420" x2="1200" y2="420"/>
    <line x1="0" y1="525" x2="1200" y2="525"/>
  </g>

  <circle cx="1080" cy="90" r="120" fill="rgba(124,92,255,0.16)"/>
  <circle cx="1160" cy="220" r="60" fill="rgba(255,154,90,0.16)"/>

  <rect x="80" y="80" width="64" height="64" rx="14" fill="#ffffff" stroke="#e6e4de"/>
  <text x="112" y="124" text-anchor="middle" font-family="Figtree, ui-sans-serif, sans-serif" font-size="22" font-weight="800" fill="#1c1e1b">PD</text>

  <text x="80" y="290" font-family="Figtree, ui-sans-serif, sans-serif" font-size="64" font-weight="800" fill="#1c1e1b" letter-spacing="-1">Pranathi Deepak</text>
  <text x="80" y="350" font-family="Figtree, ui-sans-serif, sans-serif" font-size="32" font-weight="600" fill="#6b6f6a">Machine Learning Engineer</text>

  <text x="80" y="420" font-family="Figtree, ui-sans-serif, sans-serif" font-size="22" font-weight="500" fill="#9a9d96">Production ML &#183; GenAI &#183; RAG &#183; MLOps</text>

  <g font-family="Figtree, ui-sans-serif, sans-serif" font-size="16" font-weight="700" fill="#1c1e1b">
    <rect x="80" y="470" width="110" height="40" rx="20" fill="#ffffff" stroke="#e6e4de"/>
    <text x="135" y="495" text-anchor="middle">PYTHON</text>
    <rect x="200" y="470" width="110" height="40" rx="20" fill="#ffffff" stroke="#e6e4de"/>
    <text x="255" y="495" text-anchor="middle">PYTORCH</text>
    <rect x="320" y="470" width="130" height="40" rx="20" fill="rgba(124,92,255,0.14)" stroke="#7c5cff"/>
    <text x="385" y="495" text-anchor="middle" fill="#7c5cff">LANGCHAIN</text>
    <rect x="460" y="470" width="90" height="40" rx="20" fill="#ffffff" stroke="#e6e4de"/>
    <text x="505" y="495" text-anchor="middle">AWS</text>
    <rect x="560" y="470" width="110" height="40" rx="20" fill="#ffffff" stroke="#e6e4de"/>
    <text x="615" y="495" text-anchor="middle">DOCKER</text>
  </g>
</svg>
